<?xml version="1.0" encoding="UTF-8" standalone="no"?><svg xmlns="http://www.w3.org/2000/svg" xmlns:xlink="http://www.w3.org/1999/xlink" contentStyleType="text/css" height="359px" preserveAspectRatio="none" style="width:471px;height:359px;background:#FFFFFF;" version="1.1" viewBox="0 0 471 359" width="471px" zoomAndPan="magnify"><defs/><g><!--MD5=[11cf52187f2bd0d6e1109b82f9d136f0]
class Collaborateur--><g id="elem_Collaborateur"><rect codeLine="1" fill="#F1F1F1" height="96.8906" id="Collaborateur" rx="2.5" ry="2.5" style="stroke:#181818;stroke-width:0.5;" width="130" x="174.5" y="256"/><ellipse cx="189.5" cy="272" fill="#B4A7E5" rx="11" ry="11" style="stroke:#181818;stroke-width:1.0;"/><path d="M190.4531,268.7813 L192.1719,268.7813 C192.5625,268.7813 192.75,268.75 192.875,268.6719 C193.1406,268.5156 193.2813,268.2344 193.2813,267.9375 C193.2813,267.6719 193.1719,267.4063 192.9375,267.2344 C192.7656,267.125 192.625,267.0938 192.1719,267.0938 L187.0313,267.0938 C186.5938,267.0938 186.4688,267.1094 186.3125,267.2031 C186.0625,267.3594 185.9063,267.6563 185.9063,267.9375 C185.9063,268.2188 186.0469,268.4688 186.2656,268.6406 C186.4219,268.75 186.6094,268.7813 187.0313,268.7813 L188.75,268.7813 L188.75,275.2969 L187.0313,275.2969 C186.5938,275.2969 186.4688,275.3125 186.3125,275.4219 C186.0625,275.5781 185.9063,275.8594 185.9063,276.1563 C185.9063,276.4063 186.0469,276.6719 186.2656,276.8281 C186.4219,276.9531 186.625,277 187.0313,277 L192.1719,277 C192.9219,277 193.2813,276.7188 193.2813,276.1563 C193.2813,275.875 193.1719,275.625 192.9375,275.4531 C192.7656,275.3281 192.625,275.2969 192.1719,275.2969 L190.4531,275.2969 L190.4531,268.7813 Z " fill="#000000"/><text fill="#000000" font-family="sans-serif" font-size="14" font-style="italic" lengthAdjust="spacing" textLength="98" x="203.5" y="276.8467">Collaborateur</text><line style="stroke:#181818;stroke-width:0.5;" x1="175.5" x2="303.5" y1="288" y2="288"/><ellipse cx="185.5" cy="299" fill="none" rx="3" ry="3" style="stroke:#038048;stroke-width:1.0;"/><text fill="#000000" font-family="sans-serif" font-size="14" lengthAdjust="spacing" textLength="61" x="194.5" y="304.9951">nom: str</text><ellipse cx="185.5" cy="315.2969" fill="none" rx="3" ry="3" style="stroke:#038048;stroke-width:1.0;"/><text fill="#000000" font-family="sans-serif" font-size="14" lengthAdjust="spacing" textLength="86" x="194.5" y="321.292">prenom: str</text><line style="stroke:#181818;stroke-width:0.5;" x1="175.5" x2="303.5" y1="328.5938" y2="328.5938"/><ellipse cx="185.5" cy="339.5938" fill="#84BE84" rx="3" ry="3" style="stroke:#038048;stroke-width:1.0;"/><text fill="#000000" font-family="sans-serif" font-size="14" lengthAdjust="spacing" textLength="74" x="194.5" y="345.5889">travailler()</text></g><!--MD5=[2b4598f1f9ee391c4e796d3cbd3cb725]
class Remunere--><g id="elem_Remunere"><rect codeLine="7" fill="#F1F1F1" height="80.5938" id="Remunere" rx="2.5" ry="2.5" style="stroke:#181818;stroke-width:0.5;" width="219" x="7" y="115"/><ellipse cx="74.75" cy="131" fill="#B4A7E5" rx="11" ry="11" style="stroke:#181818;stroke-width:1.0;"/><path d="M75.7031,127.7813 L77.4219,127.7813 C77.8125,127.7813 78,127.75 78.125,127.6719 C78.3906,127.5156 78.5313,127.2344 78.5313,126.9375 C78.5313,126.6719 78.4219,126.4063 78.1875,126.2344 C78.0156,126.125 77.875,126.0938 77.4219,126.0938 L72.2813,126.0938 C71.8438,126.0938 71.7188,126.1094 71.5625,126.2031 C71.3125,126.3594 71.1563,126.6563 71.1563,126.9375 C71.1563,127.2188 71.2969,127.4688 71.5156,127.6406 C71.6719,127.75 71.8594,127.7813 72.2813,127.7813 L74,127.7813 L74,134.2969 L72.2813,134.2969 C71.8438,134.2969 71.7188,134.3125 71.5625,134.4219 C71.3125,134.5781 71.1563,134.8594 71.1563,135.1563 C71.1563,135.4063 71.2969,135.6719 71.5156,135.8281 C71.6719,135.9531 71.875,136 72.2813,136 L77.4219,136 C78.1719,136 78.5313,135.7188 78.5313,135.1563 C78.5313,134.875 78.4219,134.625 78.1875,134.4531 C78.0156,134.3281 77.875,134.2969 77.4219,134.2969 L75.7031,134.2969 L75.7031,127.7813 Z " fill="#000000"/><text fill="#000000" font-family="sans-serif" font-size="14" font-style="italic" lengthAdjust="spacing" textLength="75" x="95.25" y="135.8467">Remunere</text><line style="stroke:#181818;stroke-width:0.5;" x1="8" x2="225" y1="147" y2="147"/><ellipse cx="18" cy="158" fill="none" rx="3" ry="3" style="stroke:#038048;stroke-width:1.0;"/><text fill="#000000" font-family="sans-serif" font-size="14" lengthAdjust="spacing" textLength="75" x="27" y="163.9951">salaire: int</text><line style="stroke:#181818;stroke-width:0.5;" x1="8" x2="225" y1="171.2969" y2="171.2969"/><ellipse cx="18" cy="182.2969" fill="#84BE84" rx="3" ry="3" style="stroke:#038048;stroke-width:1.0;"/><text fill="#000000" font-family="sans-serif" font-size="14" lengthAdjust="spacing" textLength="193" x="27" y="188.292">augmentation(%: int): void</text></g><!--MD5=[2f4ec88ca5addbb52d4bc90d0ba30dfa]
class DureeLimite--><g id="elem_DureeLimite"><rect codeLine="12" fill="#F1F1F1" height="80.5938" id="DureeLimite" rx="2.5" ry="2.5" style="stroke:#181818;stroke-width:0.5;" width="203" x="261" y="115"/><ellipse cx="314.25" cy="131" fill="#B4A7E5" rx="11" ry="11" style="stroke:#181818;stroke-width:1.0;"/><path d="M315.2031,127.7813 L316.9219,127.7813 C317.3125,127.7813 317.5,127.75 317.625,127.6719 C317.8906,127.5156 318.0313,127.2344 318.0313,126.9375 C318.0313,126.6719 317.9219,126.4063 317.6875,126.2344 C317.5156,126.125 317.375,126.0938 316.9219,126.0938 L311.7813,126.0938 C311.3438,126.0938 311.2188,126.1094 311.0625,126.2031 C310.8125,126.3594 310.6563,126.6563 310.6563,126.9375 C310.6563,127.2188 310.7969,127.4688 311.0156,127.6406 C311.1719,127.75 311.3594,127.7813 311.7813,127.7813 L313.5,127.7813 L313.5,134.2969 L311.7813,134.2969 C311.3438,134.2969 311.2188,134.3125 311.0625,134.4219 C310.8125,134.5781 310.6563,134.8594 310.6563,135.1563 C310.6563,135.4063 310.7969,135.6719 311.0156,135.8281 C311.1719,135.9531 311.375,136 311.7813,136 L316.9219,136 C317.6719,136 318.0313,135.7188 318.0313,135.1563 C318.0313,134.875 317.9219,134.625 317.6875,134.4531 C317.5156,134.3281 317.375,134.2969 316.9219,134.2969 L315.2031,134.2969 L315.2031,127.7813 Z " fill="#000000"/><text fill="#000000" font-family="sans-serif" font-size="14" font-style="italic" lengthAdjust="spacing" textLength="88" x="334.75" y="135.8467">DureeLimite</text><line style="stroke:#181818;stroke-width:0.5;" x1="262" x2="463" y1="147" y2="147"/><ellipse cx="272" cy="158" fill="none" rx="3" ry="3" style="stroke:#038048;stroke-width:1.0;"/><text fill="#000000" font-family="sans-serif" font-size="14" lengthAdjust="spacing" textLength="119" x="281" y="163.9951">finContrat: Date</text><line style="stroke:#181818;stroke-width:0.5;" x1="262" x2="463" y1="171.2969" y2="171.2969"/><ellipse cx="272" cy="182.2969" fill="#84BE84" rx="3" ry="3" style="stroke:#038048;stroke-width:1.0;"/><text fill="#000000" font-family="sans-serif" font-size="14" lengthAdjust="spacing" textLength="177" x="281" y="188.292">prolonger(jrs: num): void</text></g><!--MD5=[0b4bc68e21bbdcaed405770876680103]
class CDI--><g id="elem_CDI"><rect codeLine="17" fill="#F1F1F1" height="48" id="CDI" rx="2.5" ry="2.5" style="stroke:#181818;stroke-width:0.5;" width="57" x="88" y="7"/><ellipse cx="103" cy="23" fill="#ADD1B2" rx="11" ry="11" style="stroke:#181818;stroke-width:1.0;"/><path d="M105.3438,18.6719 C104.4063,18.2344 103.8125,18.0938 102.9375,18.0938 C100.3125,18.0938 98.3125,20.1719 98.3125,22.8906 L98.3125,24.0156 C98.3125,26.5938 100.4219,28.4844 103.3125,28.4844 C104.5313,28.4844 105.6875,28.1875 106.4375,27.6406 C107.0156,27.2344 107.3438,26.7813 107.3438,26.3906 C107.3438,25.9375 106.9531,25.5469 106.4844,25.5469 C106.2656,25.5469 106.0625,25.625 105.875,25.8125 C105.4219,26.2969 105.4219,26.2969 105.2344,26.3906 C104.8125,26.6563 104.125,26.7813 103.3594,26.7813 C101.3125,26.7813 100.0156,25.6875 100.0156,23.9844 L100.0156,22.8906 C100.0156,21.1094 101.2656,19.7969 103,19.7969 C103.5781,19.7969 104.1875,19.9531 104.6563,20.2031 C105.1406,20.4844 105.3125,20.7031 105.4063,21.1094 C105.4688,21.5156 105.5,21.6406 105.6406,21.7656 C105.7813,21.9063 106.0156,22.0156 106.2344,22.0156 C106.5,22.0156 106.7656,21.875 106.9375,21.6563 C107.0469,21.5 107.0781,21.3125 107.0781,20.8906 L107.0781,19.4688 C107.0781,19.0313 107.0625,18.9063 106.9688,18.75 C106.8125,18.4844 106.5313,18.3438 106.2344,18.3438 C105.9375,18.3438 105.7344,18.4375 105.5156,18.75 L105.3438,18.6719 Z " fill="#000000"/><text fill="#000000" font-family="sans-serif" font-size="14" lengthAdjust="spacing" textLength="25" x="117" y="27.8467">CDI</text><line style="stroke:#181818;stroke-width:0.5;" x1="89" x2="144" y1="39" y2="39"/><line style="stroke:#181818;stroke-width:0.5;" x1="89" x2="144" y1="47" y2="47"/></g><!--MD5=[b4a6f05f784595b13ea70d3a0b1aed65]
class CDD--><g id="elem_CDD"><rect codeLine="19" fill="#F1F1F1" height="48" id="CDD" rx="2.5" ry="2.5" style="stroke:#181818;stroke-width:0.5;" width="64" x="197.5" y="7"/><ellipse cx="212.5" cy="23" fill="#ADD1B2" rx="11" ry="11" style="stroke:#181818;stroke-width:1.0;"/><path d="M214.8438,18.6719 C213.9063,18.2344 213.3125,18.0938 212.4375,18.0938 C209.8125,18.0938 207.8125,20.1719 207.8125,22.8906 L207.8125,24.0156 C207.8125,26.5938 209.9219,28.4844 212.8125,28.4844 C214.0313,28.4844 215.1875,28.1875 215.9375,27.6406 C216.5156,27.2344 216.8438,26.7813 216.8438,26.3906 C216.8438,25.9375 216.4531,25.5469 215.9844,25.5469 C215.7656,25.5469 215.5625,25.625 215.375,25.8125 C214.9219,26.2969 214.9219,26.2969 214.7344,26.3906 C214.3125,26.6563 213.625,26.7813 212.8594,26.7813 C210.8125,26.7813 209.5156,25.6875 209.5156,23.9844 L209.5156,22.8906 C209.5156,21.1094 210.7656,19.7969 212.5,19.7969 C213.0781,19.7969 213.6875,19.9531 214.1563,20.2031 C214.6406,20.4844 214.8125,20.7031 214.9063,21.1094 C214.9688,21.5156 215,21.6406 215.1406,21.7656 C215.2813,21.9063 215.5156,22.0156 215.7344,22.0156 C216,22.0156 216.2656,21.875 216.4375,21.6563 C216.5469,21.5 216.5781,21.3125 216.5781,20.8906 L216.5781,19.4688 C216.5781,19.0313 216.5625,18.9063 216.4688,18.75 C216.3125,18.4844 216.0313,18.3438 215.7344,18.3438 C215.4375,18.3438 215.2344,18.4375 215.0156,18.75 L214.8438,18.6719 Z " fill="#000000"/><text fill="#000000" font-family="sans-serif" font-size="14" lengthAdjust="spacing" textLength="32" x="226.5" y="27.8467">CDD</text><line style="stroke:#181818;stroke-width:0.5;" x1="198.5" x2="260.5" y1="39" y2="39"/><line style="stroke:#181818;stroke-width:0.5;" x1="198.5" x2="260.5" y1="47" y2="47"/></g><!--MD5=[7e351c0849bc38fdcb88ebce115907e4]
class Stagiaire--><g id="elem_Stagiaire"><rect codeLine="21" fill="#F1F1F1" height="48" id="Stagiaire" rx="2.5" ry="2.5" style="stroke:#181818;stroke-width:0.5;" width="96" x="314.5" y="7"/><ellipse cx="329.5" cy="23" fill="#ADD1B2" rx="11" ry="11" style="stroke:#181818;stroke-width:1.0;"/><path d="M331.8438,18.6719 C330.9063,18.2344 330.3125,18.0938 329.4375,18.0938 C326.8125,18.0938 324.8125,20.1719 324.8125,22.8906 L324.8125,24.0156 C324.8125,26.5938 326.9219,28.4844 329.8125,28.4844 C331.0313,28.4844 332.1875,28.1875 332.9375,27.6406 C333.5156,27.2344 333.8438,26.7813 333.8438,26.3906 C333.8438,25.9375 333.4531,25.5469 332.9844,25.5469 C332.7656,25.5469 332.5625,25.625 332.375,25.8125 C331.9219,26.2969 331.9219,26.2969 331.7344,26.3906 C331.3125,26.6563 330.625,26.7813 329.8594,26.7813 C327.8125,26.7813 326.5156,25.6875 326.5156,23.9844 L326.5156,22.8906 C326.5156,21.1094 327.7656,19.7969 329.5,19.7969 C330.0781,19.7969 330.6875,19.9531 331.1563,20.2031 C331.6406,20.4844 331.8125,20.7031 331.9063,21.1094 C331.9688,21.5156 332,21.6406 332.1406,21.7656 C332.2813,21.9063 332.5156,22.0156 332.7344,22.0156 C333,22.0156 333.2656,21.875 333.4375,21.6563 C333.5469,21.5 333.5781,21.3125 333.5781,20.8906 L333.5781,19.4688 C333.5781,19.0313 333.5625,18.9063 333.4688,18.75 C333.3125,18.4844 333.0313,18.3438 332.7344,18.3438 C332.4375,18.3438 332.2344,18.4375 332.0156,18.75 L331.8438,18.6719 Z " fill="#000000"/><text fill="#000000" font-family="sans-serif" font-size="14" lengthAdjust="spacing" textLength="64" x="343.5" y="27.8467">Stagiaire</text><line style="stroke:#181818;stroke-width:0.5;" x1="315.5" x2="409.5" y1="39" y2="39"/><line style="stroke:#181818;stroke-width:0.5;" x1="315.5" x2="409.5" y1="47" y2="47"/></g><!--MD5=[daa69214c92a27949f56d274eaea386d]
link Remunere to Collaborateur--><g id="link_Remunere_Collaborateur"><path codeLine="23" d="M149.786,196.28 C164.073,213.355 180.953,233.53 196.195,251.746 " fill="none" id="Remunere-to-Collaborateur" style="stroke:#181818;stroke-width:1.0;"/><polygon fill="#181818" points="199.624,255.8431,196.915,246.3741,196.4149,252.0088,190.7802,251.5087,199.624,255.8431" style="stroke:#181818;stroke-width:1.0;"/></g><!--MD5=[8bd28d89725bd6a9e1369fc5562042ef]
link DureeLimite to Collaborateur--><g id="link_DureeLimite_Collaborateur"><path codeLine="24" d="M329.214,196.28 C314.927,213.355 298.047,233.53 282.805,251.746 " fill="none" id="DureeLimite-to-Collaborateur" style="stroke:#181818;stroke-width:1.0;"/><polygon fill="#181818" points="279.376,255.8431,288.2198,251.5087,282.5851,252.0088,282.085,246.3741,279.376,255.8431" style="stroke:#181818;stroke-width:1.0;"/></g><!--MD5=[4911514d2be37c5c57659abd5139eb9f]
link Stagiaire to DureeLimite--><g id="link_Stagiaire_DureeLimite"><path codeLine="26" d="M362.5,55.041 C362.5,70.372 362.5,91.021 362.5,109.53 " fill="none" id="Stagiaire-to-DureeLimite" style="stroke:#181818;stroke-width:1.0;"/><polygon fill="#181818" points="362.5,114.688,366.5,105.688,362.5,109.688,358.5,105.688,362.5,114.688" style="stroke:#181818;stroke-width:1.0;"/></g><!--MD5=[91b04a6d2faaa60a9c05cce0f097b6e8]
link CDD to Remunere--><g id="link_CDD_Remunere"><path codeLine="28" d="M208.246,55.041 C193.741,70.765 174.076,92.083 156.673,110.95 " fill="none" id="CDD-to-Remunere" style="stroke:#181818;stroke-width:1.0;"/><polygon fill="#181818" points="153.224,114.688,162.266,110.7839,156.6138,111.0125,156.3852,105.3603,153.224,114.688" style="stroke:#181818;stroke-width:1.0;"/></g><!--MD5=[06db4cf52c164774b68c02911b251e81]
link CDD to DureeLimite--><g id="link_CDD_DureeLimite"><path codeLine="29" d="M254.516,55.041 C271.73,70.896 295.118,92.438 315.727,111.42 " fill="none" id="CDD-to-DureeLimite" style="stroke:#181818;stroke-width:1.0;"/><polygon fill="#181818" points="319.541,114.933,315.6314,105.8934,315.8634,111.5455,310.2113,111.7775,319.541,114.933" style="stroke:#181818;stroke-width:1.0;"/></g><!--MD5=[8c0822798a9f7b7172846762a7d92105]
link CDI to Remunere--><g id="link_CDI_Remunere"><path codeLine="31" d="M116.5,55.041 C116.5,70.372 116.5,91.021 116.5,109.53 " fill="none" id="CDI-to-Remunere" style="stroke:#181818;stroke-width:1.0;"/><polygon fill="#181818" points="116.5,114.688,120.5,105.688,116.5,109.688,112.5,105.688,116.5,114.688" style="stroke:#181818;stroke-width:1.0;"/></g><!--MD5=[ff499ec1c6417161b04b7937277e8589]
@startuml
interface Collaborateur {
  +nom: str
  +prenom: str
  +travailler()
}

interface Remunere {
  +salaire: int
  +augmentation(%: int): void
}

interface DureeLimite {
  +finContrat: Date
  +prolonger(jrs: num): void
}

class CDI {}

class CDD {}

class Stagiaire {}

Collaborateur <-up- Remunere
Collaborateur <-up- DureeLimite

Stagiaire - -> DureeLimite

CDD - -> Remunere
CDD - -> DureeLimite

CDI - -> Remunere
@enduml

PlantUML version 1.2022.3beta2(Unknown compile time)
(GPL source distribution)
Java Runtime: Java(TM) SE Runtime Environment
JVM: Java HotSpot(TM) 64-Bit Server VM
Default Encoding: UTF-8
Language: en
Country: US
--></g></svg>